<svg xmlns="http://www.w3.org/2000/svg" xmlns:xlink="http://www.w3.org/1999/xlink" version="1.1" width="1000" height="1000" viewBox="0 0 1000 1000" xml:space="preserve">

<rect x="0" y="0" width="100%" height="100%" fill="rgba(36,49,118,0)"/>
<g transform="matrix(17.4865 0 0 17.4865 495.7796 482.0241)" id="icon-0">
<path style="stroke: none; stroke-width: 0; stroke-dasharray: none; stroke-linecap: butt; stroke-dashoffset: 0; stroke-linejoin: miter; stroke-miterlimit: 4; is-custom-font: none; font-file-url: none; fill: rgba(255,255,255,1); fill-rule: nonzero; opacity: 1;" transform=" translate(-26.2, -26)" d="M 43.9 8.1 c -0.1 -0.1 -0.2 -0.3 -0.4 -0.4 C 38.9 2.6 33.101 0 26.5 0 c -0.1 0 -0.2 0 -0.3 0 c -0.1 0 -0.3 0 -0.5 0 c -0.1 0 -0.1 0 -0.2 0.1 h -0.3 h 0.2 c -2.2 0 -4.3 0.4 -6.3 1.1 c -0.2 0.1 -0.3 0.2 -0.5 0.3 c -2.2 -1.3 -4.7 -1.4 -7.3 -0.4 c 1.1 0.7 2.1 1.6 2.6 2.8 c 0 0.1 0 0.1 -0.1 0.1 c -1 0.6 -1.9 1.4 -2.9 2.2 c -0.1 0.2 -0.2 0.3 -0.3 0.4 l 0 0 C 10.2 7 9.8 7.4 9.5 7.7 H 9.4 C 8.8 8.4 8.3 9 7.8 9.8 V 9.7 c -1.3 1.7 -2.3 3.4 -3.2 5.4 c -0.9 2 -1.5 4.3 -1.8 6.5 c -0.2 0.8 -0.3 1.6 -0.3 2.5 C 0.8 24.4 0 25.6 0 27.7 v 2.7 c 0 2.5 1.3 3.7 3.8 3.7 h 1 c 0.9 4.1 2.9 7.7 5.8 10.9 c 4.3 4.6 9.6 7 15.7 7 s 11.3 -2.4 15.7 -7 c 2.9 -3.2 4.9 -6.8 5.8 -10.9 h 0.8 c 2.5 0 3.8 -1.2 3.8 -3.7 v -2.7 c 0 -1.8 -0.6 -2.8 -1.8 -3.4 c -0.101 -0.9 -0.2 -1.8 -0.3 -2.7 c -0.3 -2 -0.8 -3.9 -1.5 -5.6 v -0.1 c -0.2 -0.4 -0.3 -0.8 -0.5 -1.1 C 47.2 12.4 45.8 10.1 43.9 8.1 z M 48.4 25.4 h 0.2 c 0.399 0 0.8 0.1 1 0.2 c 0.899 0.3 1.3 1 1.3 2.1 v 2.7 c 0 1.5 -0.8 2.2 -2.3 2.2 h -0.5 c 0.3 -1.4 0.399 -2.9 0.399 -4.5 C 48.5 27.2 48.4 26.3 48.4 25.4 z M 46.8 24.6 c 0 0 0 0 0 0.1 c 0.1 1.1 0.2 2.2 0.2 3.4 c 0 1.8 -0.2 3.4 -0.5 5 c 0 0 0 0.1 0 0.3 c -0.899 3.9 -2.8 7.4 -5.6 10.5 c -4 4.4 -8.9 6.6 -14.6 6.6 s -10.5 -2.2 -14.6 -6.6 c -2.9 -3.1 -4.7 -6.6 -5.6 -10.5 c 0 -0.2 0 -0.3 -0.101 -0.3 c -0.2 -1.6 -0.399 -3.2 -0.399 -5 c 0 -1 0.1 -2.1 0.2 -3 c 1.1 -0.6 4.7 -3.2 10.8 -7.6 C 17.2 19.9 19 21.2 22 21.4 c -1.1 -1.9 -1.1 -4.3 0.101 -7 c 0.5 0.5 3.5 2 9.2 4.4 c 6.4 2.8 11.6 4.6 15.5 5.7 V 24.6 z M 21 13 h 0.101 H 21 L 21 13 z M 3.8 25.4 l 0.5 0.1 c -0.1 0.9 -0.2 1.7 -0.2 2.6 c 0 1.6 0.2 3.1 0.399 4.5 H 3.8 c -1.5 0 -2.3 -0.7 -2.3 -2.2 v -2.7 c 0 -1.3 0.601 -2.1 1.8 -2.2 c 0.1 0 0.2 0 0.2 -0.1 C 3.5 25.4 3.601 25.4 3.8 25.4 z" stroke-linecap="round"/>
</g>
<g transform="matrix(17.4865 0 0 17.4865 495.7782 531.8578)" id="icon-0">
<path style="stroke: none; stroke-width: 0; stroke-dasharray: none; stroke-linecap: butt; stroke-dashoffset: 0; stroke-linejoin: miter; stroke-miterlimit: 4; is-custom-font: none; font-file-url: none; fill: rgba(255,255,255,1); fill-rule: nonzero; opacity: 1;" transform=" translate(-26.2, -28.85)" d="M 42 28.9 c 0 -1.8 -0.6 -3.4 -2 -4.7 c -1.3 -1.3 -2.899 -2 -4.7 -2 s -3.4 0.7 -4.7 2 l 0 0 c -1 1 -1.7 2.3 -1.8 3.7 c -1.7 -0.8 -3.4 -0.8 -5.2 0 c -0.101 -1.4 -0.7 -2.7 -1.8 -3.7 c -1.4 -1.3 -2.9 -2 -4.7 -2 c -1.8 0 -3.4 0.7 -4.7 2 l 0 0 c -1.3 1.3 -2 2.9 -2 4.7 c 0 1.8 0.7 3.3 2 4.7 c 1.3 1.3 2.9 1.9 4.7 1.9 c 1.8 0 3.3 -0.6 4.7 -1.9 c 1.1 -1.2 1.8 -2.6 1.9 -4.2 c 0.1 0 0.2 0 0.2 0 c 1.6 -1 3.2 -1 4.8 0 c 0.1 1.6 0.7 3 1.9 4.2 c 1.3 1.3 2.899 1.9 4.7 1.9 s 3.4 -0.6 4.7 -1.9 C 41.4 32.2 42 30.7 42 28.9 z M 40.4 28.9 c 0 1.3 -0.5 2.5 -1.5 3.5 c -0.9 1 -2.1 1.5 -3.6 1.5 c -1.4 0 -2.6 -0.5 -3.5 -1.5 c -1 -1 -1.5 -2.2 -1.5 -3.5 c 0 -1.4 0.5 -2.6 1.5 -3.6 c 0.9 -1 2.1 -1.5 3.5 -1.5 c 1.5 0 2.7 0.5 3.6 1.5 C 39.9 26.3 40.4 27.5 40.4 28.9 z M 12.101 28.9 c 0 -1.4 0.5 -2.6 1.5 -3.6 c 0.899 -1 2.1 -1.5 3.5 -1.5 c 1.3 0 2.5 0.5 3.5 1.5 l 0 0 c 1 1 1.5 2.2 1.5 3.6 c 0 1.3 -0.5 2.5 -1.5 3.5 s -2.2 1.5 -3.5 1.5 c -1.4 0 -2.601 -0.5 -3.5 -1.5 C 12.601 31.4 12.101 30.2 12.101 28.9 z" stroke-linecap="round"/>
</g>
<g transform="matrix(17.4865 0 0 17.4865 624.3014 525.737)" id="icon-0">
<path style="stroke: none; stroke-width: 0; stroke-dasharray: none; stroke-linecap: butt; stroke-dashoffset: 0; stroke-linejoin: miter; stroke-miterlimit: 4; is-custom-font: none; font-file-url: none; fill: rgba(255,255,255,1); fill-rule: nonzero; opacity: 1;" transform=" translate(-33.55, -28.5)" d="M 33.5 26.1 c -0.6 0 -1.1 0.2 -1.6 0.6 c -0.5 0.5 -0.8 1.1 -0.8 1.7 c 0 0.7 0.3 1.3 0.8 1.7 c 0 0.1 0 0.1 0 0.1 c 0.5 0.5 1 0.7 1.6 0.7 c 0.7 0 1.3 -0.3 1.8 -0.7 c 0.5 -0.5 0.7 -1.1 0.7 -1.8 c 0 -0.6 -0.2 -1.2 -0.6 -1.7 h -0.1 C 34.8 26.2 34.2 26.1 33.5 26.1 z M 34.4 28.4 c 0 0.3 0 0.5 -0.2 0.7 c -0.2 0.1 -0.4 0.2 -0.7 0.2 c -0.1 0 -0.3 -0.1 -0.5 -0.2 c 0 -0.1 0 -0.1 0 -0.1 c -0.1 -0.1 -0.2 -0.3 -0.2 -0.6 c 0 -0.2 0.1 -0.3 0.2 -0.5 c 0.101 -0.2 0.3 -0.3 0.5 -0.3 c 0.3 0 0.5 0.1 0.601 0.3 C 34.3 28.1 34.4 28.2 34.4 28.4 z" stroke-linecap="round"/>
</g>
<g transform="matrix(17.4865 0 0 17.4865 367.2517 525.737)" id="icon-0">
<path style="stroke: none; stroke-width: 0; stroke-dasharray: none; stroke-linecap: butt; stroke-dashoffset: 0; stroke-linejoin: miter; stroke-miterlimit: 4; is-custom-font: none; font-file-url: none; fill: rgba(255,255,255,1); fill-rule: nonzero; opacity: 1;" transform=" translate(-18.85, -28.5)" d="M 18.9 26.1 c -0.7 0 -1.3 0.2 -1.8 0.6 c -0.5 0.5 -0.7 1.1 -0.7 1.7 c 0 0.7 0.2 1.3 0.7 1.7 c 0 0.1 0 0.1 0 0.1 c 0.5 0.5 1.1 0.7 1.8 0.7 c 0.6 0 1.2 -0.3 1.7 -0.7 c 0.5 -0.5 0.7 -1.1 0.7 -1.8 c 0 -0.6 -0.2 -1.2 -0.7 -1.7 l 0 0 C 20.101 26.2 19.5 26.1 18.9 26.1 z M 19.4 27.9 c 0.2 0.2 0.2 0.3 0.2 0.5 c 0 0.3 0 0.5 -0.2 0.7 c -0.1 0.1 -0.3 0.2 -0.5 0.2 c -0.3 0 -0.5 -0.1 -0.5 -0.2 C 18.3 29 18.3 29 18.3 29 c -0.2 -0.1 -0.2 -0.3 -0.2 -0.6 c 0 -0.2 0 -0.3 0.2 -0.5 c 0.1 -0.2 0.3 -0.3 0.6 -0.3 C 19.101 27.6 19.3 27.7 19.4 27.9 z" stroke-linecap="round"/>
</g>
<g transform="matrix(17.4865 0 0 17.4865 507.8184 768.7979)" id="icon-0">
<path style="stroke: none; stroke-width: 0; stroke-dasharray: none; stroke-linecap: butt; stroke-dashoffset: 0; stroke-linejoin: miter; stroke-miterlimit: 4; is-custom-font: none; font-file-url: none; fill: rgba(255,255,255,1); fill-rule: nonzero; opacity: 1;" transform=" translate(-26.8886, -42.4)" d="M 18.3 40.7 c 0.4 0.6 0.9 1.2 1.6 1.9 c 1.9 1.9 4.2 2.9 7 2.9 c 2.7 0 5.1 -1 7.1 -2.9 c 0.601 -0.7 1.101 -1.3 1.5 -1.9 c 0.101 -0.3 0.2 -0.5 0.101 -0.7 c 0 -0.3 -0.101 -0.4 -0.3 -0.6 c -0.3 -0.1 -0.5 -0.1 -0.8 -0.1 c -0.2 0.1 -0.399 0.2 -0.5 0.4 c -0.399 0.6 -0.7 1.1 -1.2 1.6 c -1.7 1.6 -3.6 2.4 -5.9 2.4 s -4.2 -0.8 -5.8 -2.4 l 0 0 c -0.5 -0.5 -1 -1 -1.2 -1.6 c -0.2 -0.2 -0.4 -0.3 -0.6 -0.4 c -0.3 0 -0.5 0 -0.7 0.1 c -0.2 0.2 -0.3 0.3 -0.4 0.6 C 18.101 40.2 18.101 40.4 18.3 40.7 z" stroke-linecap="round"/>
</g>
<g transform="matrix(18.0604 0 0 18.0604 432.5686 267.8305)" id="icon-0">
<path style="stroke: none; stroke-width: 0; stroke-dasharray: none; stroke-linecap: butt; stroke-dashoffset: 0; stroke-linejoin: miter; stroke-miterlimit: 4; is-custom-font: none; font-file-url: none; fill: rgba(255,255,255,1); fill-rule: nonzero; opacity: 1;" transform=" translate(-21.0505, -13)" d="M 21.101 13 H 21 l 0 0 H 21.101 z" stroke-linecap="round"/>
</g>
<g transform="matrix(3.6724 0 0 3.7862 499.9947 502.7604)" id="tight-bounds">
<rect style="stroke: none; stroke-width: 1; stroke-dasharray: none; stroke-linecap: butt; stroke-dashoffset: 0; stroke-linejoin: miter; stroke-miterlimit: 4; is-custom-font: none; font-file-url: none; fill: none; fill-rule: nonzero; opacity: 1;" x="-141.5841" y="-123.6" rx="0" ry="0" width="283.1682" height="247.2"/>
</g>
</svg>